{"glyphs":{"0":{"ha":344,"x_min":14,"x_max":331,"o":"m 172 0 q 60 47 107 0 q 14 158 14 93 l 14 793 q 60 905 14 858 q 172 951 107 951 q 284 905 238 951 q 331 793 331 858 l 331 158 q 284 47 331 93 q 172 0 238 0 m 172 108 q 208 123 193 108 q 222 158 222 138 l 222 793 q 208 828 222 813 q 172 843 193 843 q 137 828 151 843 q 122 793 122 813 l 122 158 q 137 123 122 138 q 172 108 151 108 "},"1":{"ha":307,"x_min":14,"x_max":293,"o":"m 293 0 l 156 0 l 156 4 q 167 8 163 4 q 171 17 171 13 l 171 828 l 138 754 q 141 747 138 750 q 151 743 144 743 l 151 739 l 14 739 l 14 743 q 24 747 21 743 q 69 844 28 751 q 111 938 111 936 q 107 944 111 942 q 97 946 103 946 l 97 951 l 293 951 l 293 946 q 283 942 286 946 q 279 935 279 939 l 279 17 q 283 8 279 13 q 293 4 286 4 l 293 0 "},"2":{"ha":358,"x_min":14,"x_max":344,"o":"m 344 0 l 28 0 l 28 314 q 147 514 28 443 q 203 553 186 536 q 236 629 232 585 l 236 793 q 222 828 236 813 q 186 843 207 843 q 151 828 167 843 q 136 793 136 813 l 136 756 q 140 747 136 750 q 151 743 144 743 l 151 739 l 14 739 l 14 743 q 24 747 21 743 q 28 756 28 750 l 28 793 q 74 905 28 858 q 186 951 121 951 q 298 905 251 951 q 344 793 344 858 l 344 638 q 222 436 344 507 q 169 399 185 414 q 136 322 142 365 l 136 108 l 328 108 q 337 112 333 108 q 340 124 340 115 l 344 124 l 344 0 "},"3":{"ha":351,"x_min":14,"x_max":338,"o":"m 179 0 q 72 49 115 4 q 28 158 28 94 l 28 196 q 24 205 28 201 q 14 208 21 208 l 14 213 l 151 213 l 151 208 q 141 205 144 208 q 138 196 138 201 l 138 158 q 149 126 138 140 q 182 108 161 111 q 215 124 201 110 q 229 158 229 139 l 229 371 q 215 406 229 392 q 179 421 200 421 l 132 421 l 132 529 l 179 529 q 215 544 200 529 q 229 579 229 558 l 229 793 q 215 826 229 813 q 182 842 201 840 q 149 826 161 840 q 138 793 138 813 l 138 756 q 141 747 138 750 q 151 743 144 743 l 151 739 l 14 739 l 14 743 q 24 747 21 743 q 28 756 28 750 l 28 793 q 71 901 28 856 q 178 950 114 946 l 179 951 q 291 905 244 951 q 338 793 338 858 l 338 579 q 299 475 338 522 q 338 371 338 429 l 338 158 q 291 47 338 93 q 179 0 244 0 "},"4":{"ha":360,"x_min":14,"x_max":346,"o":"m 346 0 l 208 0 l 208 4 q 219 8 215 4 q 222 17 222 13 l 222 317 l 14 317 q 214 935 14 321 l 214 938 q 201 946 214 946 l 201 951 l 346 951 l 346 946 q 331 935 331 946 l 331 17 q 334 8 331 13 q 346 4 338 4 l 346 0 m 222 425 l 222 625 l 157 425 l 222 425 "},"5":{"ha":358,"x_min":14,"x_max":344,"o":"m 186 0 q 74 47 121 0 q 28 158 28 93 l 28 196 q 24 205 28 201 q 14 208 21 208 l 14 213 l 151 213 l 151 208 q 141 205 144 208 q 138 196 138 201 l 138 158 q 152 123 138 138 q 186 108 167 108 q 222 123 207 108 q 236 158 236 138 l 236 322 q 172 422 229 386 l 146 438 q 28 638 28 508 l 28 951 l 344 951 l 344 828 l 340 828 q 337 839 340 835 q 328 843 333 843 l 138 843 l 138 629 q 200 529 143 564 l 222 515 q 344 314 344 443 l 344 158 q 298 47 344 93 q 186 0 251 0 "},"6":{"ha":358,"x_min":14,"x_max":344,"o":"m 172 0 q 60 47 107 0 q 14 158 14 93 l 14 793 q 60 905 14 858 q 172 951 107 951 q 284 905 238 951 q 331 793 331 858 l 331 756 q 334 747 331 750 q 344 743 338 743 l 344 739 l 207 739 l 207 743 q 218 747 214 743 q 222 756 222 750 l 222 793 q 207 828 222 813 q 172 843 192 843 q 137 828 151 843 q 122 793 122 813 l 122 529 l 172 529 q 284 483 238 529 q 331 371 331 436 l 331 158 q 284 47 331 93 q 172 0 238 0 m 172 108 q 207 123 192 108 q 222 158 222 138 l 222 371 q 207 406 222 392 q 172 421 192 421 l 122 421 l 122 158 q 137 123 122 138 q 172 108 151 108 "},"7":{"ha":374,"x_min":14,"x_max":360,"o":"m 151 0 l 14 0 l 14 4 q 25 8 21 4 q 29 17 29 13 l 226 843 l 60 843 q 51 839 54 843 q 47 828 47 835 l 43 828 l 43 951 l 360 951 l 211 324 l 138 17 l 138 14 q 141 8 138 11 q 151 4 144 4 l 151 0 "},"8":{"ha":344,"x_min":14,"x_max":331,"o":"m 172 0 q 64 44 110 0 q 14 154 18 88 l 14 314 q 81 475 14 407 q 14 638 14 544 l 14 793 q 60 904 14 857 q 172 951 107 951 q 285 904 239 951 q 331 793 331 857 l 331 638 q 265 475 331 544 q 331 314 331 407 l 331 154 q 282 44 328 89 q 172 0 236 0 m 172 539 q 222 629 217 571 l 222 793 q 189 840 222 825 l 188 840 q 172 843 179 843 l 169 842 q 136 826 150 840 q 122 793 122 813 l 122 629 q 172 539 129 572 m 179 108 q 210 125 197 111 q 222 158 222 139 l 222 322 q 172 413 217 382 q 122 322 129 382 l 122 157 q 139 122 124 135 q 175 108 154 108 l 179 108 "},"9":{"ha":360,"x_min":14,"x_max":346,"o":"m 188 0 q 76 47 122 0 q 29 158 29 93 l 29 196 q 26 205 29 201 q 14 208 22 208 l 14 213 l 151 213 l 151 208 q 141 205 144 208 q 138 196 138 201 l 138 158 q 152 123 138 138 q 188 108 167 108 q 222 123 207 108 q 238 158 238 138 l 238 421 l 188 421 q 76 467 122 421 q 29 579 29 514 l 29 793 q 76 905 29 858 q 188 951 122 951 q 299 905 253 951 q 346 793 346 858 l 346 158 q 299 47 346 93 q 188 0 253 0 m 238 529 l 238 793 q 222 828 238 813 q 188 843 207 843 q 152 828 167 843 q 138 793 138 813 l 138 579 q 152 544 138 560 q 188 529 167 529 l 238 529 "},"\u0000":{"ha":586,"x_min":14,"x_max":572,"o":"m 572 0 l 572 972 l 14 972 l 14 0 l 572 0 m 539 33 l 47 33 l 47 939 l 539 939 l 539 33 m 269 308 q 254 399 254 372 q 278 465 254 431 q 344 553 303 500 q 403 640 386 606 q 419 710 419 675 q 381 797 419 765 q 282 828 342 828 q 167 779 224 828 l 167 749 q 208 776 189 767 q 251 786 226 786 q 335 703 335 779 q 280 556 335 653 q 225 408 225 460 q 249 308 225 374 l 269 308 m 263 144 q 276 154 267 144 l 314 196 q 321 211 321 203 q 315 225 321 217 l 276 265 q 263 272 268 272 q 249 265 256 272 l 210 226 q 203 211 203 218 q 207 200 203 206 l 249 151 q 263 144 254 144 "},"\u001d":{"ha":586,"x_min":14,"x_max":572,"o":"m 572 0 l 14 0 l 14 972 l 572 972 l 572 0 m 539 33 l 539 939 l 47 939 l 47 33 l 539 33 m 269 308 l 249 308 q 225 408 225 374 q 280 556 225 460 q 335 703 335 653 q 251 786 335 779 q 208 776 226 786 q 167 749 189 767 l 167 779 q 282 828 224 828 q 381 797 342 828 q 419 710 419 765 q 403 640 419 675 q 344 553 386 606 q 278 465 303 500 q 254 399 254 431 q 269 308 254 372 m 263 144 q 249 151 254 144 l 207 200 q 203 211 203 206 q 210 226 203 218 l 249 265 q 263 272 256 272 q 276 265 268 272 l 315 225 q 321 211 321 217 q 314 196 321 203 l 276 154 q 263 144 267 144 "}," ":{"ha":174,"x_min":0,"x_max":0,"o":""}," ":{"ha":174,"x_min":0,"x_max":0,"o":""},"!":{"ha":165,"x_min":14,"x_max":151,"o":"m 138 0 l 29 0 l 29 108 l 138 108 l 138 0 m 151 133 l 14 133 l 14 138 q 25 141 21 138 q 29 150 29 144 l 29 933 q 25 942 29 939 q 14 946 21 946 l 14 950 l 151 950 l 151 946 q 141 942 144 946 q 138 933 138 939 l 138 150 q 141 141 138 144 q 151 138 144 138 l 151 133 "},"\"":{"ha":271,"x_min":14,"x_max":257,"o":"m 257 775 l 253 775 q 249 787 253 783 q 240 790 244 790 l 228 790 l 208 842 l 149 842 l 149 950 l 257 950 l 257 775 m 122 775 l 118 775 q 115 787 118 783 q 106 790 111 790 l 93 790 l 74 842 l 14 842 l 14 950 l 122 950 l 122 775 "},"#":{"ha":624,"x_min":14,"x_max":610,"o":"m 383 0 l 246 0 l 246 4 q 261 17 261 4 l 301 188 l 183 188 l 143 14 q 157 4 143 4 l 157 0 l 19 0 l 19 4 q 35 17 35 4 l 75 188 l 33 188 q 24 183 29 188 q 18 172 18 179 l 14 174 l 42 296 l 101 296 l 190 669 l 153 669 q 143 665 149 669 q 138 654 138 660 l 132 656 l 161 778 l 217 778 l 254 935 q 250 942 254 939 q 239 946 246 946 l 239 950 l 376 950 l 376 946 q 363 933 363 946 l 325 778 l 443 778 l 481 935 q 476 942 481 939 q 465 946 472 946 l 465 950 l 603 950 l 603 946 q 589 933 589 946 l 551 778 l 610 778 l 581 654 l 576 656 l 576 660 q 568 669 576 669 l 525 669 l 436 296 l 490 296 l 461 172 l 457 174 l 457 178 q 449 188 457 188 l 410 188 l 369 14 q 383 4 369 4 l 383 0 m 328 296 l 417 669 l 299 669 l 210 296 l 328 296 "},"$":{"ha":374,"x_min":14,"x_max":360,"o":"m 256 -104 l 118 -104 l 118 -100 q 128 -97 125 -100 q 132 -87 132 -93 l 132 10 q 56 68 85 28 q 28 158 28 108 l 28 196 q 24 204 28 200 q 14 208 21 208 l 14 213 l 151 213 l 151 208 q 140 204 144 208 q 136 196 136 200 l 136 158 q 151 123 136 138 q 186 108 165 108 q 222 123 207 108 q 236 158 236 138 l 236 321 q 174 421 229 388 l 150 435 q 28 638 28 507 l 28 792 q 56 882 28 842 q 132 940 85 922 l 132 1038 q 128 1047 132 1043 q 118 1050 125 1050 l 118 1054 l 256 1054 l 256 1050 q 244 1047 249 1050 q 240 1038 240 1043 l 240 940 q 316 882 288 922 q 344 792 344 842 l 344 754 q 348 746 344 750 q 360 742 351 742 l 360 738 l 222 738 l 222 742 q 233 746 229 742 q 236 754 236 750 l 236 792 q 222 827 236 813 q 186 842 207 842 q 151 827 165 842 q 136 792 136 813 l 136 629 q 201 529 143 564 l 226 513 q 344 314 344 442 l 344 158 q 316 68 344 108 q 240 10 288 28 l 240 -87 q 244 -97 240 -93 q 256 -100 249 -100 l 256 -104 "},"%":{"ha":385,"x_min":14,"x_max":371,"o":"m 151 0 l 14 0 l 14 4 q 25 8 21 4 q 29 17 29 11 l 247 938 q 236 946 247 946 l 233 946 l 233 950 l 371 950 l 371 946 q 360 942 364 946 q 356 933 356 939 l 138 14 q 151 4 138 4 l 151 0 m 65 647 q 29 662 44 647 q 14 699 14 676 l 14 899 q 29 935 14 919 q 65 950 44 950 q 102 935 88 950 q 117 899 117 919 l 117 699 q 102 662 117 676 q 65 647 88 647 m 65 685 q 76 689 72 685 q 81 699 81 693 l 81 899 q 76 908 81 904 q 65 913 72 913 q 56 908 60 913 q 51 899 51 904 l 51 699 q 56 689 51 693 q 65 685 60 685 m 319 0 q 283 15 297 0 q 268 51 268 31 l 268 251 q 283 288 268 274 q 319 303 297 303 q 356 288 340 303 q 371 251 371 274 l 371 51 q 356 15 371 31 q 319 0 340 0 m 319 38 q 329 42 325 38 q 333 51 333 46 l 333 251 q 329 261 333 257 q 319 265 325 265 q 310 261 314 265 q 306 251 306 257 l 306 51 q 310 42 306 46 q 319 38 314 38 "},"&":{"ha":360,"x_min":14,"x_max":346,"o":"m 346 -104 l 208 -104 l 208 -100 q 219 -97 215 -100 q 222 -87 222 -93 l 222 8 q 211 4 217 6 q 200 2 206 3 q 190 1 194 1 q 181 0 186 0 q 172 0 176 0 q 163 0 167 0 q 156 1 158 0 q 152 1 154 1 q 145 2 150 1 q 133 4 140 3 q 104 15 118 8 q 14 154 21 60 l 14 314 q 81 475 14 407 q 14 638 14 543 l 14 796 l 15 800 q 15 807 15 804 q 15 812 15 810 q 16 815 15 814 q 17 817 17 815 q 17 824 17 819 q 20 834 18 829 q 23 842 22 839 q 24 847 24 846 q 26 850 25 849 q 26 853 26 851 q 27 855 26 854 q 28 857 28 856 q 29 859 29 858 q 30 860 29 860 q 32 863 31 861 q 36 871 33 865 q 43 883 39 876 q 88 925 61 908 q 108 936 97 932 l 111 938 q 117 940 114 939 q 124 942 121 942 q 131 944 128 943 q 139 947 135 946 q 148 948 143 947 q 156 949 153 949 q 161 950 158 950 l 185 950 q 192 949 188 950 q 200 948 196 949 q 207 947 204 947 q 211 946 210 946 q 216 944 213 946 q 222 942 219 943 q 227 940 224 942 q 233 938 231 939 q 239 935 236 936 q 244 933 242 935 q 288 901 268 921 q 310 871 300 888 q 311 867 310 869 q 314 863 313 865 q 315 860 315 861 q 316 859 315 860 q 317 857 317 858 q 318 855 318 856 q 319 853 318 854 q 320 850 319 851 q 322 847 321 849 q 324 840 322 844 q 326 830 325 836 q 328 819 328 824 q 330 812 329 814 q 331 806 331 810 q 331 799 331 803 l 331 638 q 208 435 331 507 q 156 397 171 413 q 122 321 128 365 l 122 157 l 124 151 l 125 146 l 125 144 l 125 144 q 125 142 125 143 q 126 142 125 142 q 126 140 126 142 q 127 138 126 139 q 128 136 128 138 l 128 136 l 128 136 q 128 135 128 135 q 129 133 129 135 l 129 133 l 129 133 l 131 132 l 131 132 l 131 132 l 131 131 l 132 131 q 133 128 132 129 q 134 127 133 128 q 135 126 135 126 q 136 124 136 125 q 137 123 136 124 q 138 122 138 122 q 140 122 139 122 q 140 120 140 121 q 141 119 140 119 q 143 118 142 118 l 143 118 l 143 118 l 144 117 l 144 117 q 146 115 146 117 l 146 115 l 147 115 l 147 115 l 147 115 l 149 114 l 149 114 l 150 114 l 150 114 l 151 113 l 151 113 l 151 113 l 153 113 l 154 113 q 156 111 156 111 q 158 111 157 111 q 158 110 158 111 l 160 110 q 160 110 160 110 l 172 108 l 185 110 l 186 110 l 186 110 q 188 111 188 111 q 190 111 189 111 q 192 112 190 111 q 193 113 193 113 l 194 113 l 194 114 l 194 114 l 196 114 l 196 114 q 197 115 197 114 q 199 115 197 115 l 199 115 l 199 115 l 199 115 l 200 117 l 200 117 q 201 118 201 117 l 203 118 l 203 118 l 203 118 q 205 120 204 119 q 206 122 206 121 q 208 122 207 122 q 208 123 208 122 q 209 124 208 124 q 210 126 210 125 q 212 127 211 126 q 213 128 213 128 q 214 131 213 129 l 214 131 l 214 131 l 215 132 l 215 132 l 215 132 q 216 133 215 133 q 217 135 217 133 l 217 135 l 217 135 q 218 136 217 136 l 218 136 l 218 136 l 218 138 l 218 138 l 218 139 l 219 139 q 219 141 219 140 q 220 142 219 142 q 221 144 221 143 q 221 144 221 144 l 221 146 l 222 151 l 222 199 l 331 199 l 331 -87 q 334 -97 331 -93 q 346 -100 338 -100 l 346 -104 m 172 539 q 222 629 217 571 l 222 792 q 189 839 222 824 l 188 840 l 168 842 l 157 839 q 122 792 122 824 l 122 629 q 172 539 129 571 "},"'":{"ha":136,"x_min":14,"x_max":122,"o":"m 122 775 l 118 775 q 115 787 118 783 q 106 790 111 790 l 93 790 l 74 842 l 14 842 l 14 950 l 122 950 l 122 775 "},"(":{"ha":210,"x_min":14,"x_max":196,"o":"m 196 -14 l 192 -14 q 188 -3 192 -7 q 172 0 185 0 q 60 47 107 0 q 14 158 14 93 l 14 793 q 60 905 14 858 q 172 951 107 951 l 183 951 q 192 964 192 954 l 196 964 l 196 826 l 192 826 q 176 842 192 842 q 137 827 151 842 q 122 793 122 813 l 122 158 q 137 123 122 138 q 172 108 151 108 q 185 111 179 108 q 192 124 192 114 l 196 124 l 196 -14 "},")":{"ha":210,"x_min":14,"x_max":196,"o":"m 18 -14 l 14 -14 l 14 124 l 18 124 q 25 110 18 114 l 38 108 q 73 123 58 108 q 88 158 88 138 l 88 793 q 73 827 88 813 q 33 842 58 842 q 18 826 18 842 l 14 826 l 14 964 l 18 964 q 26 951 18 954 l 38 951 q 149 905 103 951 q 196 793 196 858 l 196 158 q 149 47 196 93 q 31 0 103 0 q 22 -3 26 0 q 18 -14 18 -7 "},"*":{"ha":389,"x_min":14,"x_max":375,"o":"m 297 656 l 294 658 q 299 665 299 663 l 299 668 q 194 743 299 671 q 90 668 90 671 q 94 660 93 660 q 96 658 94 660 l 92 656 l 14 724 l 18 726 q 24 724 21 724 q 31 726 29 724 l 32 726 l 154 811 l 154 938 q 151 943 154 940 q 143 946 149 946 l 143 950 l 246 950 l 246 946 q 238 943 240 946 q 236 811 236 940 l 358 726 q 367 724 363 724 q 372 726 369 724 l 375 724 l 297 656 "},"+":{"ha":344,"x_min":14,"x_max":331,"o":"m 240 317 l 103 317 l 103 321 q 114 324 110 321 q 118 333 118 328 l 118 421 l 31 421 q 22 417 25 421 q 18 407 18 414 l 14 407 l 14 544 l 18 544 q 22 533 18 536 q 31 529 25 529 l 118 529 l 118 617 q 114 626 118 622 q 103 629 110 629 l 103 633 l 240 633 l 240 629 q 230 626 233 629 q 226 617 226 622 l 226 529 l 314 529 q 322 533 318 529 q 325 544 325 536 l 331 544 l 331 407 l 325 407 q 322 417 325 414 q 314 421 318 421 l 226 421 l 226 333 q 230 324 226 328 q 240 321 233 321 l 240 317 "},",":{"ha":136,"x_min":14,"x_max":122,"o":"m 122 -67 l 118 -67 q 114 -56 118 -60 q 106 -53 110 -53 l 93 -53 l 72 0 l 14 0 l 14 108 l 122 108 l 122 -67 "},"-":{"ha":344,"x_min":14,"x_max":331,"o":"m 331 407 l 326 407 q 322 417 326 414 q 314 421 318 421 l 31 421 q 22 417 25 421 q 18 407 18 414 l 14 407 l 14 544 l 18 544 q 22 533 18 536 q 31 529 25 529 l 314 529 q 322 533 318 529 q 326 544 326 536 l 331 544 l 331 407 "},"­":{"ha":344,"x_min":14,"x_max":331,"o":"m 331 407 l 331 544 l 326 544 q 322 533 326 536 q 314 529 318 529 l 31 529 q 22 533 25 529 q 18 544 18 536 l 14 544 l 14 407 l 18 407 q 22 417 18 414 q 31 421 25 421 l 314 421 q 322 417 318 421 q 326 407 326 414 l 331 407 "},".":{"ha":136,"x_min":14,"x_max":122,"o":"m 122 0 l 14 0 l 14 108 l 122 108 l 122 0 "},"/":{"ha":385,"x_min":14,"x_max":371,"o":"m 151 0 l 14 0 l 14 4 q 28 17 28 4 l 247 938 q 233 946 247 946 l 233 950 l 371 950 l 371 946 q 356 933 356 946 l 136 15 q 140 8 136 11 q 151 4 144 4 l 151 0 "},":":{"ha":136,"x_min":14,"x_max":122,"o":"m 122 251 l 14 251 l 14 360 l 122 360 l 122 251 m 122 590 l 14 590 l 14 699 l 122 699 l 122 590 "},";":{"ha":136,"x_min":14,"x_max":122,"o":"m 122 590 l 14 590 l 14 699 l 122 699 l 122 590 m 122 186 l 117 186 q 113 197 117 193 q 106 200 110 200 l 93 200 l 72 251 l 14 251 l 14 360 l 122 360 l 122 186 "},"<":{"ha":322,"x_min":14,"x_max":308,"o":"m 308 361 l 304 361 q 292 375 304 375 l 31 440 q 23 437 26 440 q 19 426 19 433 l 14 426 l 14 626 l 19 626 q 23 616 19 619 q 31 613 26 613 l 292 678 q 304 690 304 678 l 304 693 l 308 693 l 308 556 l 304 556 q 301 566 304 563 q 294 569 299 569 l 121 526 l 292 483 q 301 488 297 483 q 304 499 304 492 l 308 499 l 308 361 "},"=":{"ha":344,"x_min":14,"x_max":331,"o":"m 331 407 l 326 407 q 323 417 326 414 q 314 421 319 421 l 32 421 q 23 417 26 421 q 19 407 19 414 l 14 407 l 14 544 l 19 544 q 23 533 19 536 q 32 529 26 529 l 314 529 q 323 533 319 529 q 326 544 326 536 l 331 544 l 331 407 m 331 242 l 326 242 q 323 252 326 249 q 314 256 319 256 l 32 256 q 23 252 26 256 q 19 242 19 249 l 14 242 l 14 379 l 19 379 q 23 368 19 372 q 32 364 26 364 l 314 364 q 323 368 319 364 q 326 379 326 372 l 331 379 l 331 242 "},">":{"ha":322,"x_min":14,"x_max":308,"o":"m 19 361 l 14 361 l 14 499 l 19 499 q 31 483 19 483 l 201 526 l 28 569 q 19 556 19 569 l 14 556 l 14 693 l 19 693 q 22 682 19 685 q 292 613 25 679 q 304 626 304 613 l 308 626 l 308 426 l 304 426 q 292 440 304 440 q 29 375 32 375 q 23 372 26 375 q 19 361 19 368 "},"?":{"ha":358,"x_min":14,"x_max":344,"o":"m 151 133 l 14 133 l 14 138 q 24 141 21 138 q 28 150 28 144 l 28 314 q 147 513 28 442 q 203 553 185 536 q 236 629 231 585 l 236 792 q 222 827 236 813 q 186 842 207 842 q 151 827 165 842 q 136 792 136 813 l 136 754 q 140 746 136 750 q 151 742 143 742 l 151 738 l 14 738 l 14 742 q 24 746 21 742 q 28 754 28 750 l 28 792 q 74 903 28 857 q 186 950 121 950 q 298 903 251 950 q 344 792 344 857 l 344 638 q 222 435 344 507 q 169 397 185 413 q 136 321 140 365 l 136 150 q 140 141 136 144 q 151 138 143 138 l 151 133 m 136 0 l 28 0 l 28 108 l 136 108 l 136 0 "},"@":{"ha":567,"x_min":14,"x_max":553,"o":"m 394 0 l 188 0 q 76 47 122 0 q 29 158 29 93 l 29 319 q 76 431 29 385 q 188 478 122 478 l 360 478 l 360 472 q 349 469 353 472 q 346 461 346 465 l 346 158 q 360 123 346 138 q 394 108 375 108 q 430 123 415 108 q 444 158 444 138 l 444 792 q 430 827 444 813 q 394 842 415 842 l 188 842 q 152 827 167 842 q 138 792 138 813 l 138 624 q 141 615 138 619 q 151 611 144 611 l 151 607 l 14 607 l 14 611 q 25 615 21 611 q 29 624 29 619 l 29 792 q 76 903 29 857 q 188 950 122 950 l 394 950 q 506 903 460 950 q 553 792 553 857 l 553 158 q 506 47 553 93 q 394 0 460 0 m 244 108 q 236 158 236 132 l 236 369 l 188 369 q 152 354 167 369 q 138 319 138 339 l 138 158 q 152 123 138 138 q 188 108 167 108 l 244 108 "},"A":{"ha":374,"x_min":14,"x_max":360,"o":"m 360 0 l 222 0 l 222 6 q 232 9 229 6 q 235 17 235 13 l 215 318 l 157 318 l 138 17 q 141 9 138 13 q 151 6 144 6 l 151 0 l 14 0 l 14 6 q 29 18 28 6 l 88 935 q 85 944 88 940 q 74 947 82 947 l 74 951 l 299 951 l 299 947 q 288 944 292 947 q 285 935 285 940 l 343 18 q 357 6 344 6 l 360 6 l 360 0 m 208 426 l 186 779 l 164 426 l 208 426 "},"B":{"ha":358,"x_min":14,"x_max":344,"o":"m 186 0 l 14 0 l 14 6 q 25 9 21 6 q 29 17 29 13 l 29 935 q 25 943 29 939 q 14 947 21 947 l 14 951 l 186 951 q 298 905 251 951 q 344 793 344 858 l 344 581 q 306 476 344 522 q 344 372 344 429 l 344 158 q 298 47 344 93 q 186 0 251 0 m 186 110 q 222 124 207 110 q 236 158 236 139 l 236 372 q 222 408 236 393 q 188 422 207 422 l 138 422 l 138 110 l 186 110 m 188 531 q 222 545 207 531 q 236 581 236 560 l 236 793 q 222 828 236 814 q 186 843 207 843 l 138 843 l 138 531 l 188 531 "},"C":{"ha":360,"x_min":14,"x_max":346,"o":"m 172 0 q 60 47 107 0 q 14 158 14 93 l 14 793 q 60 905 14 858 q 172 951 107 951 q 284 905 238 951 q 331 793 331 858 l 331 756 q 334 747 331 750 q 346 743 338 743 l 346 739 l 208 739 l 208 743 q 219 747 215 743 q 222 756 222 750 l 222 793 q 208 828 222 814 q 172 843 193 843 q 138 828 153 843 q 122 793 122 814 l 122 158 q 138 124 122 139 q 172 110 153 110 q 208 124 193 110 q 222 158 222 139 l 222 196 q 219 205 222 201 q 208 208 215 208 l 208 213 l 346 213 l 346 208 q 334 205 338 208 q 331 196 331 201 l 331 158 q 284 47 331 93 q 172 0 238 0 "},"D":{"ha":358,"x_min":14,"x_max":344,"o":"m 186 0 l 14 0 l 14 6 q 24 9 21 6 q 28 17 28 13 l 28 935 q 24 943 28 939 q 14 947 21 947 l 14 951 l 186 951 q 298 905 251 951 q 344 793 344 858 l 344 158 q 298 47 344 93 q 186 0 251 0 m 186 110 q 222 124 207 110 q 236 158 236 139 l 236 793 q 222 828 236 814 q 186 843 207 843 l 136 843 l 136 110 l 186 110 "},"E":{"ha":358,"x_min":14,"x_max":344,"o":"m 344 0 l 14 0 l 14 6 q 24 9 21 6 q 28 17 28 13 l 28 935 q 24 943 28 939 q 14 947 21 947 l 14 951 l 344 951 l 344 828 l 340 828 q 337 840 340 836 q 328 843 333 843 l 136 843 l 136 531 l 276 531 q 284 534 281 531 q 288 544 288 538 l 293 544 l 293 407 l 288 407 q 284 418 288 414 q 276 422 281 422 l 136 422 l 136 110 l 328 110 q 337 113 333 110 q 340 124 340 117 l 344 124 l 344 0 "},"F":{"ha":358,"x_min":14,"x_max":344,"o":"m 151 0 l 14 0 l 14 6 q 24 9 21 6 q 28 17 28 13 l 28 935 q 24 943 28 939 q 14 947 21 947 l 14 951 l 344 951 l 344 828 l 340 828 q 337 840 340 836 q 328 843 333 843 l 138 843 l 138 531 l 276 531 q 285 534 281 531 q 289 544 289 538 l 293 544 l 293 407 l 289 407 q 285 418 289 414 q 276 422 281 422 l 138 422 l 138 17 q 141 9 138 13 q 151 6 144 6 l 151 0 "},"G":{"ha":358,"x_min":14,"x_max":344,"o":"m 172 0 q 60 47 107 0 q 14 158 14 93 l 14 793 q 60 905 14 858 q 172 951 107 951 q 284 905 238 951 q 331 793 331 858 l 331 756 q 334 747 331 750 q 344 743 338 743 l 344 739 l 207 739 l 207 743 q 219 747 215 743 q 222 756 222 750 l 222 793 q 208 828 222 814 q 172 843 193 843 q 137 828 151 843 q 122 793 122 814 l 122 158 q 137 124 122 139 q 172 110 151 110 q 208 124 193 110 q 222 158 222 139 l 222 422 l 186 422 q 178 418 182 422 q 175 407 175 414 l 169 407 l 169 544 l 175 544 q 178 534 175 538 q 186 531 182 531 l 331 531 l 331 158 q 284 47 331 93 q 172 0 238 0 "},"H":{"ha":372,"x_min":14,"x_max":358,"o":"m 358 0 l 221 0 l 221 6 q 233 9 229 6 q 236 17 236 13 l 236 422 l 136 422 l 136 17 q 140 9 136 13 q 151 6 143 6 l 151 0 l 14 0 l 14 6 q 24 9 21 6 q 28 17 28 13 l 28 935 q 24 943 28 939 q 14 947 21 947 l 14 951 l 151 951 l 151 947 q 140 943 143 947 q 136 935 136 939 l 136 531 l 236 531 l 236 935 q 233 943 236 939 q 221 947 229 947 l 221 951 l 358 951 l 358 947 q 348 943 351 947 q 344 935 344 939 l 344 17 q 348 9 344 13 q 358 6 351 6 l 358 0 "},"I":{"ha":165,"x_min":14,"x_max":151,"o":"m 151 0 l 14 0 l 14 6 q 24 9 21 6 q 28 17 28 13 l 28 935 q 24 943 28 939 q 14 947 21 947 l 14 951 l 151 951 l 151 947 q 140 943 143 947 q 136 935 136 939 l 136 17 q 140 9 136 13 q 151 6 143 6 l 151 0 "},"J":{"ha":372,"x_min":14,"x_max":358,"o":"m 186 0 q 74 47 121 0 q 28 158 28 93 l 28 196 q 24 205 28 201 q 14 208 21 208 l 14 213 l 151 213 l 151 208 q 140 205 143 208 q 136 196 136 201 l 136 158 q 151 124 136 139 q 186 110 165 110 q 222 124 207 110 q 236 158 236 139 l 236 935 q 233 943 236 939 q 222 947 229 947 l 222 951 l 358 951 l 358 947 q 348 943 351 947 q 344 935 344 939 l 344 158 q 298 47 344 93 q 186 0 251 0 "},"K":{"ha":374,"x_min":14,"x_max":360,"o":"m 360 0 l 222 0 l 222 6 q 233 8 229 6 q 236 17 236 11 l 138 446 l 138 17 q 141 9 138 13 q 151 6 144 6 l 151 0 l 14 0 l 14 6 q 25 9 21 6 q 29 17 29 13 l 29 935 q 25 943 29 939 q 14 947 21 947 l 14 951 l 151 951 l 151 947 q 141 943 144 947 q 138 935 138 939 l 138 506 l 236 935 q 233 944 236 940 q 222 947 229 947 l 222 951 l 360 951 l 360 947 q 349 943 353 947 q 344 935 344 939 l 239 476 l 344 18 q 357 6 346 6 l 360 6 l 360 0 "},"L":{"ha":358,"x_min":14,"x_max":344,"o":"m 344 0 l 14 0 l 14 6 q 24 9 21 6 q 28 17 28 13 l 28 935 q 24 943 28 939 q 14 947 21 947 l 14 951 l 151 951 l 151 947 q 141 943 144 947 q 138 935 138 939 l 138 110 l 328 110 q 337 113 333 110 q 340 124 340 117 l 344 124 l 344 0 "},"M":{"ha":571,"x_min":14,"x_max":557,"o":"m 557 0 l 419 0 l 419 6 q 430 9 426 6 q 433 17 433 13 l 433 557 l 339 222 q 354 213 344 213 l 354 208 l 215 208 l 215 213 q 231 222 226 213 l 138 557 l 138 17 q 141 9 138 13 q 151 6 144 6 l 151 0 l 14 0 l 14 6 q 29 17 29 6 l 29 935 q 18 947 29 943 l 14 947 l 14 951 l 151 951 l 151 947 l 149 947 q 141 942 142 943 q 140 938 140 942 l 285 414 l 431 938 q 422 947 431 944 l 419 947 l 419 951 l 557 951 l 557 947 l 553 947 q 542 935 542 943 l 542 17 q 557 6 542 6 l 557 0 "},"N":{"ha":374,"x_min":14,"x_max":360,"o":"m 360 0 l 222 0 l 222 6 l 225 6 q 233 9 229 6 q 236 17 236 13 l 136 456 l 136 17 q 140 9 136 13 q 151 6 144 6 l 151 0 l 14 0 l 14 6 q 24 9 21 6 q 28 17 28 13 l 28 935 q 17 947 25 946 l 14 947 l 14 951 l 151 951 l 151 947 q 136 935 138 947 l 236 496 l 236 935 q 233 943 236 939 q 222 947 229 947 l 222 951 l 360 951 l 360 947 q 348 943 351 947 q 344 935 344 939 l 344 17 q 348 9 344 13 q 360 6 351 6 l 360 0 "},"O":{"ha":344,"x_min":14,"x_max":331,"o":"m 172 0 q 60 47 107 0 q 14 158 14 93 l 14 793 q 60 905 14 858 q 172 951 107 951 q 284 905 238 951 q 331 793 331 858 l 331 158 q 284 47 331 93 q 172 0 238 0 m 172 110 q 208 124 193 110 q 222 158 222 139 l 222 793 q 208 828 222 814 q 172 843 193 843 q 137 828 151 843 q 122 793 122 814 l 122 158 q 137 124 122 139 q 172 110 151 110 "},"P":{"ha":358,"x_min":14,"x_max":344,"o":"m 151 0 l 14 0 l 14 6 q 24 9 21 6 q 28 17 28 13 l 28 935 q 24 943 28 939 q 14 947 21 947 l 14 951 l 186 951 q 298 905 251 951 q 344 793 344 858 l 344 581 q 298 469 344 515 q 186 422 251 422 l 138 422 l 138 17 q 141 9 138 13 q 151 6 144 6 l 151 0 m 186 531 q 222 545 207 531 q 236 581 236 560 l 236 793 q 222 828 236 814 q 186 843 207 843 l 138 843 l 138 531 l 186 531 "},"Q":{"ha":344,"x_min":14,"x_max":331,"o":"m 331 -29 l 193 -29 l 193 -25 q 204 -22 200 -25 q 208 -12 208 -18 l 204 4 q 172 0 189 0 q 60 47 107 0 q 14 158 14 93 l 14 793 q 60 905 14 858 q 172 951 107 951 q 284 905 238 951 q 331 793 331 858 l 331 158 q 299 64 331 107 q 317 -15 317 -12 q 320 -22 317 -18 q 331 -25 324 -25 l 331 -29 m 181 110 l 157 213 l 222 213 l 222 793 q 208 828 222 814 q 172 843 193 843 q 137 828 151 843 q 122 793 122 814 l 122 158 q 137 124 122 139 q 172 110 151 110 l 181 110 "},"R":{"ha":374,"x_min":14,"x_max":360,"o":"m 360 0 l 222 0 l 222 6 q 233 9 229 6 q 238 17 238 13 l 238 372 q 223 408 238 393 q 188 422 208 422 l 138 422 l 138 17 q 141 9 138 13 q 151 6 144 6 l 151 0 l 14 0 l 14 6 q 26 9 22 6 q 29 17 29 13 l 29 935 q 26 943 29 939 q 14 947 22 947 l 14 951 l 188 951 q 299 905 253 951 q 346 793 346 858 l 346 581 q 306 476 346 522 q 346 372 346 429 l 346 17 q 349 9 346 13 q 360 6 353 6 l 360 0 m 188 531 q 223 545 208 531 q 238 581 238 560 l 238 793 q 222 828 238 814 q 188 843 207 843 l 138 843 l 138 531 l 188 531 "},"S":{"ha":372,"x_min":14,"x_max":358,"o":"m 186 0 q 74 47 121 0 q 28 158 28 93 l 28 196 q 24 205 28 201 q 14 208 21 208 l 14 213 l 150 213 l 150 208 q 140 205 143 208 q 136 196 136 201 l 136 158 q 151 124 136 139 q 186 110 165 110 q 222 124 207 110 q 236 158 236 139 l 236 322 q 174 422 229 388 l 150 436 q 28 638 28 508 l 28 793 q 74 905 28 858 q 186 951 121 951 q 298 905 251 951 q 344 793 344 858 l 344 756 q 348 747 344 750 q 358 743 351 743 l 358 739 l 221 739 l 221 743 q 233 747 229 743 q 236 756 236 750 l 236 793 q 222 828 236 814 q 186 843 207 843 q 151 828 165 843 q 136 793 136 814 l 136 629 q 200 529 143 565 l 228 513 q 344 314 344 443 l 344 158 q 298 47 344 93 q 186 0 251 0 "},"T":{"ha":372,"x_min":14,"x_max":358,"o":"m 256 0 l 118 0 l 118 6 q 128 9 125 6 q 132 17 132 13 l 132 843 l 31 843 q 22 840 25 843 q 18 828 18 836 l 14 828 l 14 951 l 358 951 l 358 828 l 354 828 q 351 840 354 836 q 342 843 347 843 l 240 843 l 240 17 q 244 9 240 13 q 256 6 247 6 l 256 0 "},"U":{"ha":372,"x_min":14,"x_max":358,"o":"m 186 0 q 74 47 121 0 q 28 158 28 93 l 28 935 q 24 943 28 939 q 14 947 21 947 l 14 951 l 151 951 l 151 947 q 140 943 143 947 q 136 935 136 939 l 136 158 q 151 124 136 139 q 186 110 165 110 q 222 124 207 110 q 236 158 236 139 l 236 935 q 233 943 236 939 q 222 947 229 947 l 222 951 l 358 951 l 358 947 q 348 943 351 947 q 344 935 344 939 l 344 158 q 298 47 344 93 q 186 0 251 0 "},"V":{"ha":374,"x_min":14,"x_max":360,"o":"m 299 0 l 75 0 l 75 6 q 88 17 88 6 l 29 935 q 25 944 29 940 q 14 947 21 947 l 14 951 l 151 951 l 151 947 q 138 935 138 947 l 186 172 l 235 938 q 232 944 235 942 q 222 947 229 947 l 222 951 l 360 951 l 360 947 q 343 935 346 947 l 285 17 q 288 9 285 13 q 299 6 292 6 l 299 0 "},"W":{"ha":613,"x_min":14,"x_max":599,"o":"m 538 0 l 314 0 l 314 6 q 326 15 326 6 l 306 272 l 285 17 q 288 9 285 13 q 299 6 292 6 l 299 0 l 74 0 l 74 6 q 84 9 81 6 q 88 17 88 13 l 29 935 q 14 947 26 947 l 14 951 l 151 951 l 151 947 q 138 935 138 947 l 188 153 l 235 726 q 224 739 235 739 l 221 739 l 221 743 l 390 743 l 390 739 q 376 726 376 739 l 424 153 l 474 938 q 471 944 474 942 q 461 947 468 947 l 461 951 l 599 951 l 599 947 q 583 935 583 947 l 524 17 q 527 9 524 13 q 538 6 531 6 l 538 0 "},"X":{"ha":372,"x_min":14,"x_max":358,"o":"m 358 0 l 221 0 l 221 6 q 236 17 236 6 l 186 236 l 136 14 q 140 8 136 11 q 150 6 144 6 l 150 0 l 14 0 l 14 6 q 24 8 21 6 q 132 476 26 11 q 24 943 26 939 q 14 947 21 947 l 14 951 l 150 951 l 150 947 q 136 935 136 947 l 186 715 l 236 935 q 224 947 236 947 l 221 947 l 221 951 l 358 951 l 358 947 q 349 943 351 947 q 240 476 346 939 q 344 15 344 18 q 348 9 344 13 q 358 6 351 6 l 358 0 "},"Y":{"ha":378,"x_min":14,"x_max":364,"o":"m 257 0 l 119 0 l 119 6 q 131 9 128 6 q 135 17 135 13 l 135 424 l 31 935 q 17 947 28 947 l 14 947 l 14 951 l 151 951 l 151 947 q 142 944 144 947 q 139 935 139 940 l 189 689 l 239 935 q 236 944 239 940 q 226 947 233 947 l 226 951 l 364 951 l 364 947 q 347 935 350 947 l 243 424 l 243 17 q 247 9 243 13 q 257 6 250 6 l 257 0 "},"Z":{"ha":374,"x_min":14,"x_max":360,"o":"m 358 0 l 14 0 l 14 6 q 24 9 21 6 q 28 18 28 13 l 225 843 l 60 843 q 51 840 54 843 q 47 828 47 836 l 42 828 l 42 951 l 360 951 l 158 110 l 342 110 q 351 113 347 110 q 354 124 354 117 l 358 124 l 358 0 "},"[":{"ha":208,"x_min":14,"x_max":194,"o":"m 194 0 l 14 0 l 14 4 q 24 8 21 4 q 28 17 28 11 l 28 933 q 24 942 28 939 q 14 946 21 946 l 14 950 l 194 950 l 194 828 l 190 828 q 187 838 190 835 q 178 842 183 842 l 136 842 l 136 108 l 178 108 q 187 112 183 108 q 190 122 190 115 l 194 122 l 194 0 "},"\\":{"ha":383,"x_min":14,"x_max":369,"o":"m 369 0 l 232 0 l 232 4 q 243 7 239 4 q 247 14 247 10 l 28 933 q 14 946 28 946 l 14 950 l 151 950 l 151 946 q 140 942 144 946 q 136 935 136 939 l 356 17 q 369 4 356 4 l 369 0 "},"]":{"ha":210,"x_min":14,"x_max":196,"o":"m 196 0 l 14 0 l 14 122 l 18 122 q 22 112 18 115 q 31 108 26 108 l 72 108 l 72 842 l 31 842 q 22 838 26 842 q 18 828 18 835 l 14 828 l 14 950 l 196 950 l 196 946 q 185 942 189 946 q 181 933 181 939 l 181 17 q 185 8 181 11 q 196 4 189 4 l 196 0 "},"^":{"ha":360,"x_min":14,"x_max":346,"o":"m 346 657 l 208 657 l 208 661 q 219 664 215 661 q 222 671 222 667 l 179 843 l 136 672 q 140 665 136 668 q 151 661 144 661 l 151 657 l 14 657 l 14 661 q 28 674 28 661 l 93 933 q 79 946 93 946 l 79 950 l 279 950 l 279 946 q 265 933 265 946 l 331 674 q 343 661 331 661 l 346 661 l 346 657 "},"_":{"ha":343,"x_min":14,"x_max":329,"o":"m 329 -104 l 325 -104 q 322 -94 325 -97 q 313 -90 318 -90 l 31 -90 q 22 -94 25 -90 q 18 -104 18 -97 l 14 -104 l 14 33 l 18 33 q 22 22 18 26 q 31 18 25 18 l 313 18 q 322 22 318 18 q 325 33 325 26 l 329 33 l 329 -104 "},"`":{"ha":194,"x_min":14,"x_max":181,"o":"m 181 769 l 136 931 q 140 937 136 933 q 150 940 144 940 l 150 944 l 14 944 l 14 940 q 28 928 28 940 l 47 849 l 76 849 l 138 769 l 181 769 "},"a":{"ha":374,"x_min":14,"x_max":360,"o":"m 360 0 l 222 0 l 222 6 q 232 9 229 6 q 235 17 235 13 l 215 318 l 157 318 l 138 17 q 141 9 138 13 q 151 6 144 6 l 151 0 l 14 0 l 14 6 q 29 18 28 6 l 88 935 q 85 944 88 940 q 74 947 82 947 l 74 951 l 299 951 l 299 947 q 288 944 292 947 q 285 935 285 940 l 343 18 q 357 6 344 6 l 360 6 l 360 0 m 208 426 l 186 779 l 164 426 l 208 426 "},"b":{"ha":358,"x_min":14,"x_max":344,"o":"m 186 0 l 14 0 l 14 6 q 25 9 21 6 q 29 17 29 13 l 29 935 q 25 943 29 939 q 14 947 21 947 l 14 951 l 186 951 q 298 905 251 951 q 344 793 344 858 l 344 581 q 306 476 344 522 q 344 372 344 429 l 344 158 q 298 47 344 93 q 186 0 251 0 m 186 110 q 222 124 207 110 q 236 158 236 139 l 236 372 q 222 408 236 393 q 188 422 207 422 l 138 422 l 138 110 l 186 110 m 188 531 q 222 545 207 531 q 236 581 236 560 l 236 793 q 222 828 236 814 q 186 843 207 843 l 138 843 l 138 531 l 188 531 "},"c":{"ha":360,"x_min":14,"x_max":346,"o":"m 172 0 q 60 47 107 0 q 14 158 14 93 l 14 793 q 60 905 14 858 q 172 951 107 951 q 284 905 238 951 q 331 793 331 858 l 331 756 q 334 747 331 750 q 346 743 338 743 l 346 739 l 208 739 l 208 743 q 219 747 215 743 q 222 756 222 750 l 222 793 q 208 828 222 814 q 172 843 193 843 q 138 828 153 843 q 122 793 122 814 l 122 158 q 138 124 122 139 q 172 110 153 110 q 208 124 193 110 q 222 158 222 139 l 222 196 q 219 205 222 201 q 208 208 215 208 l 208 213 l 346 213 l 346 208 q 334 205 338 208 q 331 196 331 201 l 331 158 q 284 47 331 93 q 172 0 238 0 "},"d":{"ha":358,"x_min":14,"x_max":344,"o":"m 186 0 l 14 0 l 14 6 q 24 9 21 6 q 28 17 28 13 l 28 935 q 24 943 28 939 q 14 947 21 947 l 14 951 l 186 951 q 298 905 251 951 q 344 793 344 858 l 344 158 q 298 47 344 93 q 186 0 251 0 m 186 110 q 222 124 207 110 q 236 158 236 139 l 236 793 q 222 828 236 814 q 186 843 207 843 l 136 843 l 136 110 l 186 110 "},"e":{"ha":358,"x_min":14,"x_max":344,"o":"m 344 0 l 14 0 l 14 6 q 24 9 21 6 q 28 17 28 13 l 28 935 q 24 943 28 939 q 14 947 21 947 l 14 951 l 344 951 l 344 828 l 340 828 q 337 840 340 836 q 328 843 333 843 l 136 843 l 136 531 l 276 531 q 284 534 281 531 q 288 544 288 538 l 293 544 l 293 407 l 288 407 q 284 418 288 414 q 276 422 281 422 l 136 422 l 136 110 l 328 110 q 337 113 333 110 q 340 124 340 117 l 344 124 l 344 0 "},"f":{"ha":358,"x_min":14,"x_max":344,"o":"m 151 0 l 14 0 l 14 6 q 24 9 21 6 q 28 17 28 13 l 28 935 q 24 943 28 939 q 14 947 21 947 l 14 951 l 344 951 l 344 828 l 340 828 q 337 840 340 836 q 328 843 333 843 l 138 843 l 138 531 l 276 531 q 285 534 281 531 q 289 544 289 538 l 293 544 l 293 407 l 289 407 q 285 418 289 414 q 276 422 281 422 l 138 422 l 138 17 q 141 9 138 13 q 151 6 144 6 l 151 0 "},"g":{"ha":358,"x_min":14,"x_max":344,"o":"m 172 0 q 60 47 107 0 q 14 158 14 93 l 14 793 q 60 905 14 858 q 172 951 107 951 q 284 905 238 951 q 331 793 331 858 l 331 756 q 334 747 331 750 q 344 743 338 743 l 344 739 l 207 739 l 207 743 q 219 747 215 743 q 222 756 222 750 l 222 793 q 208 828 222 814 q 172 843 193 843 q 137 828 151 843 q 122 793 122 814 l 122 158 q 137 124 122 139 q 172 110 151 110 q 208 124 193 110 q 222 158 222 139 l 222 422 l 186 422 q 178 418 182 422 q 175 407 175 414 l 169 407 l 169 544 l 175 544 q 178 534 175 538 q 186 531 182 531 l 331 531 l 331 158 q 284 47 331 93 q 172 0 238 0 "},"h":{"ha":372,"x_min":14,"x_max":358,"o":"m 358 0 l 221 0 l 221 6 q 233 9 229 6 q 236 17 236 13 l 236 422 l 136 422 l 136 17 q 140 9 136 13 q 151 6 143 6 l 151 0 l 14 0 l 14 6 q 24 9 21 6 q 28 17 28 13 l 28 935 q 24 943 28 939 q 14 947 21 947 l 14 951 l 151 951 l 151 947 q 140 943 143 947 q 136 935 136 939 l 136 531 l 236 531 l 236 935 q 233 943 236 939 q 221 947 229 947 l 221 951 l 358 951 l 358 947 q 348 943 351 947 q 344 935 344 939 l 344 17 q 348 9 344 13 q 358 6 351 6 l 358 0 "},"i":{"ha":165,"x_min":14,"x_max":151,"o":"m 151 0 l 14 0 l 14 6 q 24 9 21 6 q 28 17 28 13 l 28 935 q 24 943 28 939 q 14 947 21 947 l 14 951 l 151 951 l 151 947 q 140 943 143 947 q 136 935 136 939 l 136 17 q 140 9 136 13 q 151 6 143 6 l 151 0 "},"j":{"ha":372,"x_min":14,"x_max":358,"o":"m 186 0 q 74 47 121 0 q 28 158 28 93 l 28 196 q 24 205 28 201 q 14 208 21 208 l 14 213 l 151 213 l 151 208 q 140 205 143 208 q 136 196 136 201 l 136 158 q 151 124 136 139 q 186 110 165 110 q 222 124 207 110 q 236 158 236 139 l 236 935 q 233 943 236 939 q 222 947 229 947 l 222 951 l 358 951 l 358 947 q 348 943 351 947 q 344 935 344 939 l 344 158 q 298 47 344 93 q 186 0 251 0 "},"k":{"ha":374,"x_min":14,"x_max":360,"o":"m 360 0 l 222 0 l 222 6 q 233 8 229 6 q 236 17 236 11 l 138 446 l 138 17 q 141 9 138 13 q 151 6 144 6 l 151 0 l 14 0 l 14 6 q 25 9 21 6 q 29 17 29 13 l 29 935 q 25 943 29 939 q 14 947 21 947 l 14 951 l 151 951 l 151 947 q 141 943 144 947 q 138 935 138 939 l 138 506 l 236 935 q 233 944 236 940 q 222 947 229 947 l 222 951 l 360 951 l 360 947 q 349 943 353 947 q 344 935 344 939 l 239 476 l 344 18 q 357 6 346 6 l 360 6 l 360 0 "},"l":{"ha":358,"x_min":14,"x_max":344,"o":"m 344 0 l 14 0 l 14 6 q 24 9 21 6 q 28 17 28 13 l 28 935 q 24 943 28 939 q 14 947 21 947 l 14 951 l 151 951 l 151 947 q 141 943 144 947 q 138 935 138 939 l 138 110 l 328 110 q 337 113 333 110 q 340 124 340 117 l 344 124 l 344 0 "},"m":{"ha":571,"x_min":14,"x_max":557,"o":"m 557 0 l 419 0 l 419 6 q 430 9 426 6 q 433 17 433 13 l 433 557 l 339 222 q 354 213 344 213 l 354 208 l 215 208 l 215 213 q 231 222 226 213 l 138 557 l 138 17 q 141 9 138 13 q 151 6 144 6 l 151 0 l 14 0 l 14 6 q 29 17 29 6 l 29 935 q 18 947 29 943 l 14 947 l 14 951 l 151 951 l 151 947 l 149 947 q 141 942 142 943 q 140 938 140 942 l 285 414 l 431 938 q 422 947 431 944 l 419 947 l 419 951 l 557 951 l 557 947 l 553 947 q 542 935 542 943 l 542 17 q 557 6 542 6 l 557 0 "},"n":{"ha":374,"x_min":14,"x_max":360,"o":"m 360 0 l 222 0 l 222 6 l 225 6 q 233 9 229 6 q 236 17 236 13 l 136 456 l 136 17 q 140 9 136 13 q 151 6 144 6 l 151 0 l 14 0 l 14 6 q 24 9 21 6 q 28 17 28 13 l 28 935 q 17 947 25 946 l 14 947 l 14 951 l 151 951 l 151 947 q 136 935 138 947 l 236 496 l 236 935 q 233 943 236 939 q 222 947 229 947 l 222 951 l 360 951 l 360 947 q 348 943 351 947 q 344 935 344 939 l 344 17 q 348 9 344 13 q 360 6 351 6 l 360 0 "},"o":{"ha":344,"x_min":14,"x_max":331,"o":"m 172 0 q 60 47 107 0 q 14 158 14 93 l 14 793 q 60 905 14 858 q 172 951 107 951 q 284 905 238 951 q 331 793 331 858 l 331 158 q 284 47 331 93 q 172 0 238 0 m 172 110 q 208 124 193 110 q 222 158 222 139 l 222 793 q 208 828 222 814 q 172 843 193 843 q 137 828 151 843 q 122 793 122 814 l 122 158 q 137 124 122 139 q 172 110 151 110 "},"p":{"ha":358,"x_min":14,"x_max":344,"o":"m 151 0 l 14 0 l 14 6 q 24 9 21 6 q 28 17 28 13 l 28 935 q 24 943 28 939 q 14 947 21 947 l 14 951 l 186 951 q 298 905 251 951 q 344 793 344 858 l 344 581 q 298 469 344 515 q 186 422 251 422 l 138 422 l 138 17 q 141 9 138 13 q 151 6 144 6 l 151 0 m 186 531 q 222 545 207 531 q 236 581 236 560 l 236 793 q 222 828 236 814 q 186 843 207 843 l 138 843 l 138 531 l 186 531 "},"q":{"ha":344,"x_min":14,"x_max":331,"o":"m 331 -29 l 193 -29 l 193 -25 q 204 -22 200 -25 q 208 -12 208 -18 l 204 4 q 172 0 189 0 q 60 47 107 0 q 14 158 14 93 l 14 793 q 60 905 14 858 q 172 951 107 951 q 284 905 238 951 q 331 793 331 858 l 331 158 q 299 64 331 107 q 317 -15 317 -12 q 320 -22 317 -18 q 331 -25 324 -25 l 331 -29 m 181 110 l 157 213 l 222 213 l 222 793 q 208 828 222 814 q 172 843 193 843 q 137 828 151 843 q 122 793 122 814 l 122 158 q 137 124 122 139 q 172 110 151 110 l 181 110 "},"r":{"ha":374,"x_min":14,"x_max":360,"o":"m 360 0 l 222 0 l 222 6 q 233 9 229 6 q 238 17 238 13 l 238 372 q 223 408 238 393 q 188 422 208 422 l 138 422 l 138 17 q 141 9 138 13 q 151 6 144 6 l 151 0 l 14 0 l 14 6 q 26 9 22 6 q 29 17 29 13 l 29 935 q 26 943 29 939 q 14 947 22 947 l 14 951 l 188 951 q 299 905 253 951 q 346 793 346 858 l 346 581 q 306 476 346 522 q 346 372 346 429 l 346 17 q 349 9 346 13 q 360 6 353 6 l 360 0 m 188 531 q 223 545 208 531 q 238 581 238 560 l 238 793 q 222 828 238 814 q 188 843 207 843 l 138 843 l 138 531 l 188 531 "},"s":{"ha":372,"x_min":14,"x_max":358,"o":"m 186 0 q 74 47 121 0 q 28 158 28 93 l 28 196 q 24 205 28 201 q 14 208 21 208 l 14 213 l 150 213 l 150 208 q 140 205 143 208 q 136 196 136 201 l 136 158 q 151 124 136 139 q 186 110 165 110 q 222 124 207 110 q 236 158 236 139 l 236 322 q 174 422 229 388 l 150 436 q 28 638 28 508 l 28 793 q 74 905 28 858 q 186 951 121 951 q 298 905 251 951 q 344 793 344 858 l 344 756 q 348 747 344 750 q 358 743 351 743 l 358 739 l 221 739 l 221 743 q 233 747 229 743 q 236 756 236 750 l 236 793 q 222 828 236 814 q 186 843 207 843 q 151 828 165 843 q 136 793 136 814 l 136 629 q 200 529 143 565 l 228 513 q 344 314 344 443 l 344 158 q 298 47 344 93 q 186 0 251 0 "},"t":{"ha":372,"x_min":14,"x_max":358,"o":"m 256 0 l 118 0 l 118 6 q 128 9 125 6 q 132 17 132 13 l 132 843 l 31 843 q 22 840 25 843 q 18 828 18 836 l 14 828 l 14 951 l 358 951 l 358 828 l 354 828 q 351 840 354 836 q 342 843 347 843 l 240 843 l 240 17 q 244 9 240 13 q 256 6 247 6 l 256 0 "},"u":{"ha":372,"x_min":14,"x_max":358,"o":"m 186 0 q 74 47 121 0 q 28 158 28 93 l 28 935 q 24 943 28 939 q 14 947 21 947 l 14 951 l 151 951 l 151 947 q 140 943 143 947 q 136 935 136 939 l 136 158 q 151 124 136 139 q 186 110 165 110 q 222 124 207 110 q 236 158 236 139 l 236 935 q 233 943 236 939 q 222 947 229 947 l 222 951 l 358 951 l 358 947 q 348 943 351 947 q 344 935 344 939 l 344 158 q 298 47 344 93 q 186 0 251 0 "},"v":{"ha":374,"x_min":14,"x_max":360,"o":"m 299 0 l 75 0 l 75 6 q 88 17 88 6 l 29 935 q 25 944 29 940 q 14 947 21 947 l 14 951 l 151 951 l 151 947 q 138 935 138 947 l 186 172 l 235 938 q 232 944 235 942 q 222 947 229 947 l 222 951 l 360 951 l 360 947 q 343 935 346 947 l 285 17 q 288 9 285 13 q 299 6 292 6 l 299 0 "},"w":{"ha":613,"x_min":14,"x_max":599,"o":"m 538 0 l 314 0 l 314 6 q 326 15 326 6 l 306 272 l 285 17 q 288 9 285 13 q 299 6 292 6 l 299 0 l 74 0 l 74 6 q 84 9 81 6 q 88 17 88 13 l 29 935 q 14 947 26 947 l 14 951 l 151 951 l 151 947 q 138 935 138 947 l 188 153 l 235 726 q 224 739 235 739 l 221 739 l 221 743 l 390 743 l 390 739 q 376 726 376 739 l 424 153 l 474 938 q 471 944 474 942 q 461 947 468 947 l 461 951 l 599 951 l 599 947 q 583 935 583 947 l 524 17 q 527 9 524 13 q 538 6 531 6 l 538 0 "},"x":{"ha":372,"x_min":14,"x_max":358,"o":"m 358 0 l 221 0 l 221 6 q 236 17 236 6 l 186 236 l 136 14 q 140 8 136 11 q 150 6 144 6 l 150 0 l 14 0 l 14 6 q 24 8 21 6 q 132 476 26 11 q 24 943 26 939 q 14 947 21 947 l 14 951 l 150 951 l 150 947 q 136 935 136 947 l 186 715 l 236 935 q 224 947 236 947 l 221 947 l 221 951 l 358 951 l 358 947 q 349 943 351 947 q 240 476 346 939 q 344 15 344 18 q 348 9 344 13 q 358 6 351 6 l 358 0 "},"y":{"ha":378,"x_min":14,"x_max":364,"o":"m 257 0 l 119 0 l 119 6 q 131 9 128 6 q 135 17 135 13 l 135 424 l 31 935 q 17 947 28 947 l 14 947 l 14 951 l 151 951 l 151 947 q 142 944 144 947 q 139 935 139 940 l 189 689 l 239 935 q 236 944 239 940 q 226 947 233 947 l 226 951 l 364 951 l 364 947 q 347 935 350 947 l 243 424 l 243 17 q 247 9 243 13 q 257 6 250 6 l 257 0 "},"z":{"ha":374,"x_min":14,"x_max":360,"o":"m 358 0 l 14 0 l 14 6 q 24 9 21 6 q 28 18 28 13 l 225 843 l 60 843 q 51 840 54 843 q 47 828 47 836 l 42 828 l 42 951 l 360 951 l 158 110 l 342 110 q 351 113 347 110 q 354 124 354 117 l 358 124 l 358 0 "},"{":{"ha":271,"x_min":14,"x_max":257,"o":"m 257 -14 l 251 -14 q 248 -3 251 -7 q 233 0 244 0 q 122 47 168 0 q 75 158 75 93 l 75 408 l 14 475 l 75 542 l 75 793 q 122 905 75 858 q 233 951 168 951 l 243 951 q 251 964 251 954 l 257 964 l 257 826 l 251 826 q 248 838 251 835 q 233 842 244 842 q 198 827 213 842 q 183 793 183 813 l 183 519 l 143 475 l 183 431 l 183 158 q 198 123 183 138 q 233 108 213 108 l 235 108 q 245 110 239 108 q 251 124 251 111 l 257 124 l 257 -14 "},"|":{"ha":165,"x_min":14,"x_max":151,"o":"m 151 -104 l 14 -104 l 14 -100 q 24 -97 21 -100 q 28 -87 28 -93 l 28 1038 q 24 1047 28 1043 q 14 1050 21 1050 l 14 1054 l 151 1054 l 151 1050 q 140 1047 144 1050 q 136 1038 136 1043 l 136 -87 q 140 -97 136 -93 q 151 -100 144 -100 l 151 -104 "},"}":{"ha":271,"x_min":14,"x_max":257,"o":"m 18 -14 l 14 -14 l 14 124 l 18 124 q 28 110 19 111 l 36 108 l 38 108 q 73 123 58 108 q 88 158 88 138 l 88 431 l 128 475 l 88 519 l 88 793 q 73 827 88 813 q 31 842 58 842 q 22 838 26 842 q 18 826 18 835 l 14 826 l 14 964 l 18 964 q 28 951 18 954 l 38 951 q 149 905 103 951 q 196 793 196 858 l 196 542 l 257 475 l 196 408 l 196 158 q 149 47 196 93 q 31 0 103 0 q 22 -3 26 0 q 18 -14 18 -7 "},"~":{"ha":590,"x_min":14,"x_max":576,"o":"m 14 376 q 102 453 64 435 q 175 472 140 472 q 294 439 214 472 q 414 406 374 406 q 493 423 453 406 q 576 490 533 440 l 576 596 q 488 519 526 539 q 414 500 450 500 q 298 534 378 500 q 175 568 218 568 q 14 483 88 568 l 14 376 "}}}
